<svg width="23" height="26" viewBox="0 0 23 26" fill="none" xmlns="http://www.w3.org/2000/svg">
<path d="M7.82528 25.318C6.41807 26.6621 3.96202 25.8973 2.39907 24.0903C0.323739 21.6911 -0.42755 17.1472 0.241467 13.0951L7.82528 25.318ZM9.46131 23.7686C8.55023 23.3752 4.89 21.4553 6.33925 14.6401C4.01755 13.0896 0.685813 11.9234 0.472587 11.6705C0.472587 11.6705 0.481284 12.0805 0.374521 12.8843L8.25363 24.8357C8.44936 24.4438 8.96838 24.1309 9.46131 23.7686ZM6.97288 19.7274C7.74976 22.3265 9.12428 22.6338 10.1375 23.2766L20.426 0.913656H20.5477L10.9957 24.0193C11.9644 24.9473 13.2566 25.8803 15.1961 25.4362C23.1912 23.9852 25.0166 10.8799 20.6918 0C15.6058 3.54423 11.7996 5.45533 9.31661 9.20735C7.38538 12.1256 5.8872 16.2353 6.97288 19.7274Z" fill="#006D54"/>
</svg>
