<svg width="88" height="35" viewBox="0 0 88 35" fill="none" xmlns="http://www.w3.org/2000/svg">
<path d="M7.82528 29.318C6.41807 30.6621 3.96202 29.8973 2.39907 28.0903C0.323739 25.6911 -0.42755 21.1472 0.241467 17.0951L7.82528 29.318ZM9.46131 27.7686C8.55023 27.3752 4.89 25.4553 6.33925 18.6401C4.01755 17.0896 0.685813 15.9234 0.472587 15.6705C0.472587 15.6705 0.481284 16.0805 0.374521 16.8843L8.25363 28.8357C8.44936 28.4438 8.96838 28.1309 9.46131 27.7686ZM6.97288 23.7275C7.74976 26.3265 9.12428 26.6338 10.1375 27.2766L20.426 4.91366H20.5477L10.9957 28.0193C11.9644 28.9473 13.2566 29.8803 15.1961 29.4362C23.1912 27.9852 25.0166 14.8799 20.6918 4C15.6058 7.54423 11.7996 9.45533 9.31661 13.2074C7.38538 16.1256 5.8872 20.2353 6.97288 23.7275Z" fill="#006D54"/>
<path d="M32.9141 4.63281L29.8047 15H28.3359L32 3.625H32.9219L32.9141 4.63281ZM35.4297 15L32.3203 4.63281L32.3047 3.625H33.2344L36.8984 15H35.4297ZM35.4297 10.7891V12.0234H29.9453V10.7891H35.4297ZM42.8516 6.54688H44.0938V15.0703C44.0938 15.8151 43.9635 16.4297 43.7031 16.9141C43.4479 17.3984 43.0911 17.7552 42.6328 17.9844C42.1745 18.2188 41.6458 18.3359 41.0469 18.3359C40.8333 18.3359 40.5651 18.2969 40.2422 18.2188C39.9193 18.1406 39.5964 18.0208 39.2734 17.8594C38.9505 17.7031 38.6849 17.5052 38.4766 17.2656L39.0469 16.3047C39.3438 16.6068 39.6589 16.8229 39.9922 16.9531C40.3255 17.0833 40.6432 17.1484 40.9453 17.1484C41.3047 17.1484 41.6172 17.0833 41.8828 16.9531C42.1484 16.8229 42.3542 16.6094 42.5 16.3125C42.6458 16.0208 42.7188 15.6302 42.7188 15.1406V8.40625L42.8516 6.54688ZM37.9922 11.1797V10.3906C37.9922 9.69271 38.0573 9.09375 38.1875 8.59375C38.3177 8.08854 38.5052 7.67448 38.75 7.35156C39 7.02344 39.2995 6.78125 39.6484 6.625C39.9974 6.46875 40.388 6.39062 40.8203 6.39062C41.2578 6.39062 41.6354 6.47917 41.9531 6.65625C42.2708 6.83333 42.5339 7.09115 42.7422 7.42969C42.9557 7.76302 43.1224 8.16927 43.2422 8.64844C43.3672 9.1224 43.4531 9.65885 43.5 10.2578V11.3125C43.4531 11.9062 43.3672 12.4401 43.2422 12.9141C43.1224 13.388 42.9531 13.7917 42.7344 14.125C42.5208 14.4583 42.2552 14.7135 41.9375 14.8906C41.6198 15.0677 41.2422 15.1562 40.8047 15.1562C40.3776 15.1562 39.9922 15.0755 39.6484 14.9141C39.3047 14.7474 39.0078 14.5 38.7578 14.1719C38.513 13.8385 38.3229 13.4245 38.1875 12.9297C38.0573 12.4297 37.9922 11.8464 37.9922 11.1797ZM39.375 10.3906V11.1797C39.375 11.6484 39.4089 12.0573 39.4766 12.4062C39.5443 12.75 39.6484 13.0365 39.7891 13.2656C39.9349 13.4896 40.1198 13.6562 40.3438 13.7656C40.5729 13.875 40.8464 13.9297 41.1641 13.9297C41.5495 13.9297 41.8646 13.8359 42.1094 13.6484C42.3542 13.4609 42.5495 13.2135 42.6953 12.9062C42.8464 12.5938 42.9661 12.2578 43.0547 11.8984V9.67969C43.0026 9.41406 42.9271 9.15885 42.8281 8.91406C42.7344 8.66406 42.612 8.44271 42.4609 8.25C42.3099 8.05208 42.1276 7.89583 41.9141 7.78125C41.7057 7.66667 41.4609 7.60938 41.1797 7.60938C40.862 7.60938 40.5885 7.66667 40.3594 7.78125C40.1302 7.89583 39.9427 8.06771 39.7969 8.29688C39.651 8.52604 39.5443 8.8151 39.4766 9.16406C39.4089 9.51302 39.375 9.92188 39.375 10.3906ZM47.5469 7.875V15H46.1641V6.54688H47.5L47.5469 7.875ZM49.6484 6.5L49.6562 7.84375C49.5417 7.81771 49.4375 7.80208 49.3438 7.79688C49.2552 7.78646 49.151 7.78125 49.0312 7.78125C48.7708 7.78125 48.5417 7.83333 48.3438 7.9375C48.151 8.04167 47.9844 8.1875 47.8438 8.375C47.7031 8.5625 47.5911 8.78646 47.5078 9.04688C47.4245 9.30208 47.3672 9.58333 47.3359 9.89062L46.9766 10.125C46.9766 9.61458 47.0156 9.13542 47.0938 8.6875C47.1771 8.23958 47.3047 7.84375 47.4766 7.5C47.6484 7.15104 47.8672 6.88021 48.1328 6.6875C48.4036 6.48958 48.7266 6.39062 49.1016 6.39062C49.1849 6.39062 49.2865 6.40365 49.4062 6.42969C49.5312 6.45052 49.612 6.47396 49.6484 6.5ZM50.5938 11.1797V10.375C50.5938 9.71875 50.6771 9.14323 50.8438 8.64844C51.0104 8.14844 51.2422 7.73177 51.5391 7.39844C51.8359 7.0651 52.1823 6.8151 52.5781 6.64844C52.974 6.47656 53.3984 6.39062 53.8516 6.39062C54.3151 6.39062 54.7448 6.47656 55.1406 6.64844C55.5365 6.8151 55.8828 7.0651 56.1797 7.39844C56.4818 7.73177 56.7161 8.14844 56.8828 8.64844C57.0495 9.14323 57.1328 9.71875 57.1328 10.375V11.1797C57.1328 11.8359 57.0495 12.4141 56.8828 12.9141C56.7161 13.4089 56.4844 13.8229 56.1875 14.1562C55.8906 14.4896 55.5443 14.7396 55.1484 14.9062C54.7526 15.0729 54.3255 15.1562 53.8672 15.1562C53.4089 15.1562 52.9818 15.0729 52.5859 14.9062C52.1901 14.7396 51.8411 14.4896 51.5391 14.1562C51.2422 13.8229 51.0104 13.4089 50.8438 12.9141C50.6771 12.4141 50.5938 11.8359 50.5938 11.1797ZM51.9766 10.375V11.1797C51.9766 11.6432 52.0234 12.0495 52.1172 12.3984C52.2109 12.7474 52.3438 13.0391 52.5156 13.2734C52.6875 13.5078 52.888 13.6849 53.1172 13.8047C53.3464 13.9193 53.5964 13.9766 53.8672 13.9766C54.1797 13.9766 54.4531 13.9193 54.6875 13.8047C54.9271 13.6849 55.125 13.5078 55.2812 13.2734C55.4375 13.0391 55.5547 12.7474 55.6328 12.3984C55.7109 12.0495 55.75 11.6432 55.75 11.1797V10.375C55.75 9.91146 55.7031 9.50781 55.6094 9.16406C55.5156 8.8151 55.3828 8.52344 55.2109 8.28906C55.0391 8.04948 54.8359 7.8724 54.6016 7.75781C54.3724 7.63802 54.1224 7.57812 53.8516 7.57812C53.5859 7.57812 53.3385 7.63802 53.1094 7.75781C52.8802 7.8724 52.6797 8.04948 52.5078 8.28906C52.3411 8.52344 52.2109 8.8151 52.1172 9.16406C52.0234 9.50781 51.9766 9.91146 51.9766 10.375Z" fill="#6B3600"/>
<path d="M30.6641 19.625V31H29.2266V19.625H30.6641ZM34.5 24.7422V25.9766H30.3906V24.7422H34.5ZM35.1484 19.625V20.8594H30.3906V19.625H35.1484ZM39.5938 31.1562C39.0885 31.1562 38.6328 31.0807 38.2266 30.9297C37.8203 30.7786 37.474 30.5495 37.1875 30.2422C36.901 29.9297 36.6823 29.5365 36.5312 29.0625C36.3802 28.5885 36.3047 28.0286 36.3047 27.3828V26.4297C36.3047 25.6849 36.3906 25.0547 36.5625 24.5391C36.7396 24.0234 36.9766 23.6094 37.2734 23.2969C37.5703 22.9792 37.9062 22.75 38.2812 22.6094C38.6562 22.4635 39.0417 22.3906 39.4375 22.3906C39.9688 22.3906 40.4219 22.4766 40.7969 22.6484C41.1719 22.8203 41.4766 23.0755 41.7109 23.4141C41.9453 23.7526 42.1172 24.1693 42.2266 24.6641C42.3411 25.1589 42.3984 25.7292 42.3984 26.375V27.1797H37.1172V26H41.0156V25.8047C40.9948 25.3672 40.9349 24.9818 40.8359 24.6484C40.7422 24.3151 40.5859 24.0547 40.3672 23.8672C40.1484 23.6745 39.8385 23.5781 39.4375 23.5781C39.1823 23.5781 38.9453 23.6224 38.7266 23.7109C38.513 23.7943 38.3281 23.9427 38.1719 24.1562C38.0208 24.3646 37.901 24.6536 37.8125 25.0234C37.7292 25.3932 37.6875 25.862 37.6875 26.4297V27.3828C37.6875 27.8359 37.7292 28.2266 37.8125 28.5547C37.901 28.8776 38.0286 29.1458 38.1953 29.3594C38.3672 29.5677 38.5755 29.724 38.8203 29.8281C39.0703 29.9271 39.3542 29.9766 39.6719 29.9766C40.1354 29.9766 40.5182 29.888 40.8203 29.7109C41.1224 29.5286 41.3854 29.2969 41.6094 29.0156L42.3359 29.8828C42.1849 30.0964 41.987 30.3021 41.7422 30.5C41.5026 30.6927 41.2057 30.8516 40.8516 30.9766C40.5026 31.0964 40.0833 31.1562 39.5938 31.1562ZM45.4531 23.875V31H44.0703V22.5469H45.4062L45.4531 23.875ZM47.5547 22.5L47.5625 23.8438C47.4479 23.8177 47.3438 23.8021 47.25 23.7969C47.1615 23.7865 47.0573 23.7812 46.9375 23.7812C46.6771 23.7812 46.4479 23.8333 46.25 23.9375C46.0573 24.0417 45.8906 24.1875 45.75 24.375C45.6094 24.5625 45.4974 24.7865 45.4141 25.0469C45.3307 25.3021 45.2734 25.5833 45.2422 25.8906L44.8828 26.125C44.8828 25.6146 44.9219 25.1354 45 24.6875C45.0833 24.2396 45.2109 23.8438 45.3828 23.5C45.5547 23.151 45.7734 22.8802 46.0391 22.6875C46.3099 22.4896 46.6328 22.3906 47.0078 22.3906C47.0911 22.3906 47.1927 22.4036 47.3125 22.4297C47.4375 22.4505 47.5182 22.474 47.5547 22.5ZM50.3281 24.3516V31H48.9453V22.5469H50.25L50.3281 24.3516ZM49.9922 26.4531L49.4297 26.4297C49.4245 25.8516 49.4896 25.3177 49.625 24.8281C49.7656 24.3333 49.9635 23.9036 50.2188 23.5391C50.4792 23.1745 50.7891 22.8932 51.1484 22.6953C51.5078 22.4922 51.9062 22.3906 52.3438 22.3906C52.6875 22.3906 53 22.4479 53.2812 22.5625C53.5625 22.6719 53.8021 22.849 54 23.0938C54.1979 23.3385 54.349 23.6562 54.4531 24.0469C54.5625 24.4323 54.6172 24.9036 54.6172 25.4609V31H53.2344V25.4453C53.2344 25.0026 53.1849 24.6484 53.0859 24.3828C52.9922 24.112 52.8464 23.9167 52.6484 23.7969C52.4557 23.6719 52.2109 23.6094 51.9141 23.6094C51.6432 23.6094 51.3906 23.6849 51.1562 23.8359C50.9219 23.987 50.7161 24.1953 50.5391 24.4609C50.3672 24.7266 50.2318 25.0312 50.1328 25.375C50.0391 25.7135 49.9922 26.0729 49.9922 26.4531ZM60.8359 29.5547V24.9688C60.8359 24.6354 60.7839 24.3672 60.6797 24.1641C60.5807 23.9609 60.4297 23.8125 60.2266 23.7188C60.0286 23.625 59.7786 23.5781 59.4766 23.5781C59.1849 23.5781 58.9323 23.638 58.7188 23.7578C58.5104 23.8776 58.349 24.0365 58.2344 24.2344C58.125 24.4323 58.0703 24.651 58.0703 24.8906H56.6875C56.6875 24.5885 56.7526 24.2891 56.8828 23.9922C57.0182 23.6953 57.2109 23.4271 57.4609 23.1875C57.7109 22.9427 58.0104 22.75 58.3594 22.6094C58.7135 22.4635 59.1094 22.3906 59.5469 22.3906C60.0677 22.3906 60.5286 22.4766 60.9297 22.6484C61.3307 22.8151 61.6458 23.0885 61.875 23.4688C62.1042 23.849 62.2188 24.3542 62.2188 24.9844V29.1562C62.2188 29.4375 62.2396 29.737 62.2812 30.0547C62.3281 30.3724 62.3932 30.6458 62.4766 30.875V31H61.0469C60.9792 30.8333 60.9271 30.612 60.8906 30.3359C60.8542 30.0547 60.8359 29.7943 60.8359 29.5547ZM61.0547 25.875L61.0703 26.8906H60.1094C59.7812 26.8906 59.4818 26.9271 59.2109 27C58.9453 27.0729 58.7161 27.1797 58.5234 27.3203C58.3307 27.4557 58.1823 27.625 58.0781 27.8281C57.9792 28.0312 57.9297 28.263 57.9297 28.5234C57.9297 28.862 57.9766 29.1328 58.0703 29.3359C58.1641 29.5339 58.3047 29.6771 58.4922 29.7656C58.6797 29.8542 58.9167 29.8984 59.2031 29.8984C59.5521 29.8984 59.8594 29.8177 60.125 29.6562C60.3906 29.4948 60.5964 29.2995 60.7422 29.0703C60.8932 28.8411 60.9635 28.6276 60.9531 28.4297L61.2578 29.0781C61.237 29.2812 61.1693 29.5026 61.0547 29.7422C60.9453 29.9766 60.7917 30.2031 60.5938 30.4219C60.3958 30.6354 60.1615 30.8125 59.8906 30.9531C59.625 31.0885 59.3255 31.1562 58.9922 31.1562C58.5026 31.1562 58.0729 31.0625 57.7031 30.875C57.3385 30.6875 57.0547 30.4115 56.8516 30.0469C56.6484 29.6823 56.5469 29.2318 56.5469 28.6953C56.5469 28.2891 56.6172 27.9141 56.7578 27.5703C56.8984 27.2266 57.1068 26.9297 57.3828 26.6797C57.6589 26.4245 58.0052 26.2266 58.4219 26.0859C58.8438 25.9453 59.3307 25.875 59.8828 25.875H61.0547ZM65.75 24.3516V31H64.3672V22.5469H65.6719L65.75 24.3516ZM65.4141 26.4531L64.8516 26.4297C64.8464 25.8516 64.9115 25.3177 65.0469 24.8281C65.1875 24.3333 65.3854 23.9036 65.6406 23.5391C65.901 23.1745 66.2109 22.8932 66.5703 22.6953C66.9297 22.4922 67.3281 22.3906 67.7656 22.3906C68.1094 22.3906 68.4219 22.4479 68.7031 22.5625C68.9844 22.6719 69.224 22.849 69.4219 23.0938C69.6198 23.3385 69.7708 23.6562 69.875 24.0469C69.9844 24.4323 70.0391 24.9036 70.0391 25.4609V31H68.6562V25.4453C68.6562 25.0026 68.6068 24.6484 68.5078 24.3828C68.4141 24.112 68.2682 23.9167 68.0703 23.7969C67.8776 23.6719 67.6328 23.6094 67.3359 23.6094C67.0651 23.6094 66.8125 23.6849 66.5781 23.8359C66.3438 23.987 66.138 24.1953 65.9609 24.4609C65.7891 24.7266 65.6536 25.0312 65.5547 25.375C65.4609 25.7135 65.4141 26.0729 65.4141 26.4531ZM76.5469 29.3594V19H77.9219V31H76.6641L76.5469 29.3594ZM71.8203 27.1797V26.3906C71.8203 25.6927 71.888 25.0938 72.0234 24.5938C72.1589 24.0885 72.3516 23.6745 72.6016 23.3516C72.8516 23.0234 73.151 22.7812 73.5 22.625C73.849 22.4688 74.2344 22.3906 74.6562 22.3906C75.0938 22.3906 75.4688 22.4792 75.7812 22.6562C76.099 22.8333 76.3646 23.0911 76.5781 23.4297C76.7917 23.763 76.9583 24.1693 77.0781 24.6484C77.2031 25.1224 77.2865 25.6589 77.3281 26.2578V27.3125C77.2812 27.9062 77.1953 28.4401 77.0703 28.9141C76.9505 29.388 76.7839 29.7917 76.5703 30.125C76.3568 30.4583 76.0911 30.7135 75.7734 30.8906C75.4557 31.0677 75.0781 31.1562 74.6406 31.1562C74.224 31.1562 73.8438 31.0755 73.5 30.9141C73.1562 30.7474 72.8568 30.5 72.6016 30.1719C72.3516 29.8385 72.1589 29.4245 72.0234 28.9297C71.888 28.4297 71.8203 27.8464 71.8203 27.1797ZM73.2031 26.3906V27.1797C73.2031 27.6484 73.237 28.0573 73.3047 28.4062C73.3724 28.75 73.4792 29.0365 73.625 29.2656C73.7708 29.4896 73.9557 29.6562 74.1797 29.7656C74.4089 29.875 74.6823 29.9297 75 29.9297C75.3854 29.9297 75.7005 29.8359 75.9453 29.6484C76.1901 29.4609 76.3854 29.2135 76.5312 28.9062C76.6823 28.5938 76.8021 28.2578 76.8906 27.8984V25.6797C76.8385 25.4141 76.763 25.1589 76.6641 24.9141C76.5651 24.6641 76.4401 24.4427 76.2891 24.25C76.1432 24.0521 75.9635 23.8958 75.75 23.7812C75.5417 23.6667 75.2969 23.6094 75.0156 23.6094C74.6979 23.6094 74.4219 23.6667 74.1875 23.7812C73.9583 23.8958 73.7708 24.0677 73.625 24.2969C73.4844 24.526 73.3776 24.8151 73.3047 25.1641C73.237 25.513 73.2031 25.9219 73.2031 26.3906ZM79.7656 27.1797V26.375C79.7656 25.7188 79.849 25.1432 80.0156 24.6484C80.1823 24.1484 80.4141 23.7318 80.7109 23.3984C81.0078 23.0651 81.3542 22.8151 81.75 22.6484C82.1458 22.4766 82.5703 22.3906 83.0234 22.3906C83.487 22.3906 83.9167 22.4766 84.3125 22.6484C84.7083 22.8151 85.0547 23.0651 85.3516 23.3984C85.6536 23.7318 85.888 24.1484 86.0547 24.6484C86.2214 25.1432 86.3047 25.7188 86.3047 26.375V27.1797C86.3047 27.8359 86.2214 28.4141 86.0547 28.9141C85.888 29.4089 85.6562 29.8229 85.3594 30.1562C85.0625 30.4896 84.7161 30.7396 84.3203 30.9062C83.9245 31.0729 83.4974 31.1562 83.0391 31.1562C82.5807 31.1562 82.1536 31.0729 81.7578 30.9062C81.362 30.7396 81.013 30.4896 80.7109 30.1562C80.4141 29.8229 80.1823 29.4089 80.0156 28.9141C79.849 28.4141 79.7656 27.8359 79.7656 27.1797ZM81.1484 26.375V27.1797C81.1484 27.6432 81.1953 28.0495 81.2891 28.3984C81.3828 28.7474 81.5156 29.0391 81.6875 29.2734C81.8594 29.5078 82.0599 29.6849 82.2891 29.8047C82.5182 29.9193 82.7682 29.9766 83.0391 29.9766C83.3516 29.9766 83.625 29.9193 83.8594 29.8047C84.099 29.6849 84.2969 29.5078 84.4531 29.2734C84.6094 29.0391 84.7266 28.7474 84.8047 28.3984C84.8828 28.0495 84.9219 27.6432 84.9219 27.1797V26.375C84.9219 25.9115 84.875 25.5078 84.7812 25.1641C84.6875 24.8151 84.5547 24.5234 84.3828 24.2891C84.2109 24.0495 84.0078 23.8724 83.7734 23.7578C83.5443 23.638 83.2943 23.5781 83.0234 23.5781C82.7578 23.5781 82.5104 23.638 82.2812 23.7578C82.0521 23.8724 81.8516 24.0495 81.6797 24.2891C81.513 24.5234 81.3828 24.8151 81.2891 25.1641C81.1953 25.5078 81.1484 25.9115 81.1484 26.375Z" fill="#006D54"/>
</svg>
