<svg width="24" height="24" viewBox="0 0 24 24" fill="none" xmlns="http://www.w3.org/2000/svg">
<path d="M17.1 8.64801C16.9968 8.74328 16.862 8.79709 16.7216 8.79912C16.5812 8.80115 16.4449 8.75126 16.339 8.65901C15.3155 7.79486 14.0195 7.32025 12.68 7.31901C11.578 7.31901 10.475 7.68201 10.475 8.69301C10.475 9.71601 11.657 10.057 13.021 10.568C15.407 11.364 17.384 12.364 17.384 14.705C17.384 17.25 15.407 19 12.18 19.193L11.885 20.557C11.8583 20.6821 11.7895 20.7943 11.6902 20.8749C11.5909 20.9555 11.4669 20.9996 11.339 21H9.305L9.203 20.989C9.05771 20.956 8.93113 20.8673 8.85039 20.7421C8.76964 20.6169 8.74115 20.465 8.771 20.319L9.089 18.875C7.86364 18.5694 6.7369 17.9552 5.816 17.091V17.08C5.76505 17.0294 5.72462 16.9691 5.69703 16.9028C5.66945 16.8365 5.65524 16.7653 5.65524 16.6935C5.65524 16.6217 5.66945 16.5505 5.69703 16.4842C5.72462 16.4179 5.76505 16.3577 5.816 16.307L6.953 15.205C7.167 15.005 7.5 15.005 7.714 15.205C8.75411 16.1869 10.1358 16.7249 11.566 16.705C13.044 16.705 14.032 16.08 14.032 15.091C14.032 14.102 13.032 13.841 11.146 13.137C9.146 12.421 7.248 11.409 7.248 9.04601C7.248 6.29601 9.532 4.95501 12.237 4.83001L12.521 3.43201C12.5473 3.30779 12.6161 3.19665 12.7156 3.11778C12.8151 3.03891 12.9391 2.99725 13.066 3.00001H15.089L15.203 3.01201C15.2732 3.02674 15.3397 3.05519 15.3988 3.09572C15.4579 3.13625 15.5085 3.18807 15.5475 3.2482C15.5865 3.30832 15.6133 3.37556 15.6262 3.44607C15.6392 3.51657 15.6381 3.58893 15.623 3.65901L15.316 5.21601C16.3477 5.55768 17.3043 6.09403 18.134 6.79601L18.157 6.81801C18.373 7.04601 18.373 7.38701 18.157 7.59101L17.1 8.64801Z" stroke="#006D54" stroke-width="2" stroke-linecap="round" stroke-linejoin="round"/>
</svg>
